# xmcd
#
# Track frame offsets:
#	150
#	15490
#	29325
#	43080
#	58572
#	76127
#	94095
#	110295
#	127230
#	143742
#	162015
#	178195
#	193127
#	208877
#	224780
#
# Disc length: 3134 seconds
#
# Revision: 1
# Processed by: cddbd v1.5.1PL2 Copyright (c) Steve Scherf et al.
# Submitted via: audiograbber 1.83.01
#
DISCID=da0c3c0f
DTITLE=Music Maestro - MM6326
DYEAR=1900
DGENRE=Karaoke
TTITLE0=Warren Brothers, The  - Move On
TTITLE1=Dwight Yoakam - What Do You Know About Love
TTITLE2=Trick Pony - Pour Me
TTITLE3=Marshall Dyllon - Live It Up
TTITLE4=Chalee Tennison - Go Back
TTITLE5=Kinleys, The - I'm In
TTITLE6=Collin Raye - She's All That
TTITLE7=Mindy McCready - Scream
TTITLE8=Sawyer Brown - Lookin' For Love
TTITLE9=Steve Holy - The Hunger
TTITLE10=Aaron Tippin - People Like Us
TTITLE11=Clay Davidson - Sometimes
TTITLE12=Pam Tillis - Please
TTITLE13=Martina McBride - It's My Time
TTITLE14=George Strait - Don't Make Me Come Over There
EXTD=
EXTT0=
EXTT1=
EXTT2=
EXTT3=
EXTT4=
EXTT5=
EXTT6=
EXTT7=
EXTT8=
EXTT9=
EXTT10=
EXTT11=
EXTT12=
EXTT13=
EXTT14=
PLAYORDER=
